<?xml version="1.0" encoding="UTF-8" standalone="no"?>
<!-- Uploaded to: SVG Repo, www.svgrepo.com, Generator: SVG Repo Mixer Tools -->

<svg
   fill="#FFFFFF"
   width="800px"
   height="800px"
   viewBox="0 0 32 32"
   id="icon"
   version="1.1"
   sodipodi:docname="icon-active.svg"
   inkscape:version="1.4.2 (f4327f4, 2025-05-13)"
   xmlns:inkscape="http://www.inkscape.org/namespaces/inkscape"
   xmlns:sodipodi="http://sodipodi.sourceforge.net/DTD/sodipodi-0.dtd"
   xmlns="http://www.w3.org/2000/svg"
   xmlns:svg="http://www.w3.org/2000/svg">
  <sodipodi:namedview
     id="namedview2"
     pagecolor="#ffffff"
     bordercolor="#000000"
     borderopacity="0.25"
     inkscape:showpageshadow="2"
     inkscape:pageopacity="0.0"
     inkscape:pagecheckerboard="0"
     inkscape:deskcolor="#d1d1d1"
     inkscape:zoom="0.509375"
     inkscape:cx="-183.55828"
     inkscape:cy="209.07975"
     inkscape:window-width="1920"
     inkscape:window-height="1017"
     inkscape:window-x="1912"
     inkscape:window-y="316"
     inkscape:window-maximized="1"
     inkscape:current-layer="icon" />
  <defs
     id="defs1">
    <style
       id="style1">.cls-1{fill:none;}</style>
  </defs>
  <title
     id="title1">Splitify Queue</title>
  <rect
     x="15"
     y="4"
     width="2"
     height="24"
     id="rect1"
     style="fill:#ffffff" />
  <path
     d="M 10,5 H 4 C 2.8954305,5 2,5.8954305 2,7 v 18 c 0,1.104569 0.8954305,2 2,2 h 6 c 1.104569,0 2,-0.895431 2,-2 V 7 C 12,5.8954305 11.104569,5 10,5 Z"
     id="path1"
     style="fill:#ffffff"
     sodipodi:nodetypes="sssssssss" />
  <path
     d="m 28,5 h -6 c -1.104569,0 -2,0.8954305 -2,2 v 18 c 0,1.104569 0.895431,2 2,2 h 6 c 1.104569,0 2,-0.895431 2,-2 V 7 C 30,5.8954305 29.104569,5 28,5 Z"
     id="path2"
     style="fill:#ffffff"
     sodipodi:nodetypes="sssssssss" />
  <rect
     id="_Transparent_Rectangle_"
     data-name="&lt;Transparent Rectangle&gt;"
     class="cls-1"
     width="32"
     height="32" />
</svg>
