<svg fill="#FFFFFF" viewBox="0 0 32 32" id="icon"
    xmlns="http://www.w3.org/2000/svg">
    <defs>
        <style>.cls-1{fill:none;}</style>
    </defs>
    <title>Splitify Queue</title>
    <rect x="15" y="4" width="2" height="24"/>
    <path d="M 10,5 H 4 C 2.8954305,5 2,5.8954305 2,7 v 18 c 0,1.104569 0.8954305,2 2,2 h 6 c 1.104569,0 2,-0.895431 2,-2 V 7 C 12,5.8954305 11.104569,5 10,5 Z" />
    <path d="m 28,5 h -6 c -1.104569,0 -2,0.8954305 -2,2 v 18 c 0,1.104569 0.895431,2 2,2 h 6 c 1.104569,0 2,-0.895431 2,-2 V 7 C 30,5.8954305 29.104569,5 28,5 Z" />
    <rect id="_Transparent_Rectangle_" data-name="&lt;Transparent Rectangle&gt;" class="cls-1" width="32" height="32" />
</svg>
